{
    "asset": {
        "generator": "COLLADA2GLTF",
        "version": "2.0"
    },
    "scenes": [
        {
            "nodes": [
                0
            ]
        }
    ],
    "scene": 0,
    "nodes": [
        {
            "children": [
                1
            ],
            "matrix": [
                1.0,
                0.0,
                0.0,
                0.0,
                0.0,
                0.0,
                -1.0,
                0.0,
                0.0,
                1.0,
                0.0,
                0.0,
                0.0,
                0.0,
                0.0,
                1.0
            ],
            "name": "Z_UP"
        },
        {
            "mesh": 0
        }
    ],
    "meshes": [
        {
            "primitives": [
                {
                    "attributes": {
                        "NORMAL": 1,
                        "POSITION": 2,
                        "TEXCOORD_0": 3
                    },
                    "indices": 0,
                    "mode": 4,
                    "material": 0
                },
                {
                    "attributes": {
                        "NORMAL": 5,
                        "POSITION": 6
                    },
                    "indices": 4,
                    "mode": 4,
                    "material": 1
                }
            ],
            "name": "geometry0"
        }
    ],
    "accessors": [
        {
            "bufferView": 0,
            "byteOffset": 0,
            "componentType": 5123,
            "count": 33,
            "max": [
                16
            ],
            "min": [
                0
            ],
            "type": "SCALAR"
        },
        {
            "bufferView": 1,
            "byteOffset": 0,
            "componentType": 5126,
            "count": 17,
            "max": [
                0.17789539694786073,
                0.6212074160575867,
                0.99503892660141
            ],
            "min": [
                -0.1764111965894699,
                -0.620478093624115,
                0.7634264826774597
            ],
            "type": "VEC3"
        },
        {
            "bufferView": 1,
            "byteOffset": 204,
            "componentType": 5126,
            "count": 17,
            "max": [
                9.465999603271485,
                6.874000072479248,
                13.104999542236329
            ],
            "min": [
                -2.894000053405762,
                -12.755999565124512,
                6.044000148773193
            ],
            "type": "VEC3"
        },
        {
            "bufferView": 2,
            "byteOffset": 0,
            "componentType": 5126,
            "count": 17,
            "max": [
                0.7747747898101807,
                0.8310810923576355
            ],
            "min": [
                0.21621620655059818,
                0.16216212511062626
            ],
            "type": "VEC2"
        },
        {
            "bufferView": 0,
            "byteOffset": 66,
            "componentType": 5123,
            "count": 147,
            "max": [
                82
            ],
            "min": [
                0
            ],
            "type": "SCALAR"
        },
        {
            "bufferView": 1,
            "byteOffset": 408,
            "componentType": 5126,
            "count": 83,
            "max": [
                0.9925863742828368,
                0.9781587719917296,
                0.0
            ],
            "min": [
                -0.9622125029563904,
                -0.962051272392273,
                -1.0
            ],
            "type": "VEC3"
        },
        {
            "bufferView": 1,
            "byteOffset": 1404,
            "componentType": 5126,
            "count": 83,
            "max": [
                9.465999603271485,
                6.874000072479248,
                13.104999542236329
            ],
            "min": [
                -2.894000053405762,
                -12.755999565124512,
                0.0
            ],
            "type": "VEC3"
        }
    ],
    "materials": [
        {
            "pbrMetallicRoughness": {
                "baseColorTexture": {
                    "index": 0
                },
                "metallicFactor": 0.0
            },
            "emissiveFactor": [
                0.0,
                0.0,
                0.0
            ],
            "name": "_DEBW_0010007Tx5Z_eff"
        },
        {
            "pbrMetallicRoughness": {
                "baseColorFactor": [
                    0.800000011920929,
                    0.800000011920929,
                    0.800000011920929,
                    1.0
                ],
                "metallicFactor": 0.0
            },
            "emissiveFactor": [
                0.0,
                0.0,
                0.0
            ],
            "name": "default_ai_0.2_sh_0.2_tr_0.0_dc_r_0.8_g_0.8_b_0.8_sc_r_1.0_g_1.0_b_1.0_ec_r_0.0_g_0.0_b_0_eff"
        }
    ],
    "textures": [
        {
            "sampler": 0,
            "source": 0
        }
    ],
    "images": [
        {
            "uri": "data:image/png;base64,"
        }
    ],
    "samplers": [
        {
            "magFilter": 9729,
            "minFilter": 9986,
            "wrapS": 10497,
            "wrapT": 10497
        }
    ],
    "bufferViews": [
        {
            "buffer": 0,
            "byteOffset": 2536,
            "byteLength": 360,
            "target": 34963
        },
        {
            "buffer": 0,
            "byteOffset": 0,
            "byteLength": 2400,
            "byteStride": 12,
            "target": 34962
        },
        {
            "buffer": 0,
            "byteOffset": 2400,
            "byteLength": 136,
            "byteStride": 8,
            "target": 34962
        }
    ],
    "buffers": [
        {
            "byteLength": 2896,
            "uri": "data:application/octet-stream;base64,"
        }
    ]
}
