{
    "asset": {
        "generator": "COLLADA2GLTF",
        "version": "2.0"
    },
    "scenes": [
        {
            "nodes": [
                0
            ]
        }
    ],
    "scene": 0,
    "nodes": [
        {
            "children": [
                1
            ],
            "matrix": [
                1.0,
                0.0,
                0.0,
                0.0,
                0.0,
                0.0,
                -1.0,
                0.0,
                0.0,
                1.0,
                0.0,
                0.0,
                0.0,
                0.0,
                0.0,
                1.0
            ],
            "name": "Z_UP"
        },
        {
            "mesh": 0
        }
    ],
    "meshes": [
        {
            "primitives": [
                {
                    "attributes": {
                        "NORMAL": 1,
                        "POSITION": 2,
                        "TEXCOORD_0": 3
                    },
                    "indices": 0,
                    "mode": 4,
                    "material": 0
                },
                {
                    "attributes": {
                        "NORMAL": 5,
                        "POSITION": 6
                    },
                    "indices": 4,
                    "mode": 4,
                    "material": 1
                }
            ],
            "name": "geometry0"
        }
    ],
    "accessors": [
        {
            "bufferView": 0,
            "byteOffset": 0,
            "componentType": 5123,
            "count": 42,
            "max": [
                17
            ],
            "min": [
                0
            ],
            "type": "SCALAR"
        },
        {
            "bufferView": 1,
            "byteOffset": 0,
            "componentType": 5126,
            "count": 18,
            "max": [
                0.23452019691467289,
                0.8228709101676941,
                0.999996781349182
            ],
            "min": [
                -0.002133599948137999,
                -0.002166900085285306,
                0.5180115103721619
            ],
            "type": "VEC3"
        },
        {
            "bufferView": 1,
            "byteOffset": 216,
            "componentType": 5126,
            "count": 18,
            "max": [
                12.5,
                1.8300000429153445,
                16.41900062561035
            ],
            "min": [
                -2.180000066757202,
                -17.469999313354493,
                11.857000350952149
            ],
            "type": "VEC3"
        },
        {
            "bufferView": 2,
            "byteOffset": 0,
            "componentType": 5126,
            "count": 18,
            "max": [
                0.7967479228973389,
                0.8287671208381653
            ],
            "min": [
                0.19512194395065309,
                0.16438359022140504
            ],
            "type": "VEC2"
        },
        {
            "bufferView": 0,
            "byteOffset": 84,
            "componentType": 5123,
            "count": 138,
            "max": [
                79
            ],
            "min": [
                0
            ],
            "type": "SCALAR"
        },
        {
            "bufferView": 1,
            "byteOffset": 432,
            "componentType": 5126,
            "count": 80,
            "max": [
                0.9970545172691344,
                0.9967787265777588,
                0.0
            ],
            "min": [
                -0.9909688830375673,
                -0.991255521774292,
                -1.0
            ],
            "type": "VEC3"
        },
        {
            "bufferView": 1,
            "byteOffset": 1392,
            "componentType": 5126,
            "count": 80,
            "max": [
                12.5,
                1.8300000429153445,
                16.41900062561035
            ],
            "min": [
                -2.180000066757202,
                -17.469999313354493,
                0.0
            ],
            "type": "VEC3"
        }
    ],
    "materials": [
        {
            "pbrMetallicRoughness": {
                "baseColorTexture": {
                    "index": 0
                },
                "metallicFactor": 0.0
            },
            "emissiveFactor": [
                0.0,
                0.0,
                0.0
            ],
            "name": "_DEBW_0010007Tx5z_eff"
        },
        {
            "pbrMetallicRoughness": {
                "baseColorFactor": [
                    0.800000011920929,
                    0.800000011920929,
                    0.800000011920929,
                    1.0
                ],
                "metallicFactor": 0.0
            },
            "emissiveFactor": [
                0.0,
                0.0,
                0.0
            ],
            "name": "default_ai_0.2_sh_0.2_tr_0.0_dc_r_0.8_g_0.8_b_0.8_sc_r_1.0_g_1.0_b_1.0_ec_r_0.0_g_0.0_b_0_eff"
        }
    ],
    "textures": [
        {
            "sampler": 0,
            "source": 0
        }
    ],
    "images": [
        {
            "uri": "data:image/png;base64,"
        }
    ],
    "samplers": [
        {
            "magFilter": 9729,
            "minFilter": 9986,
            "wrapS": 10497,
            "wrapT": 10497
        }
    ],
    "bufferViews": [
        {
            "buffer": 0,
            "byteOffset": 2496,
            "byteLength": 360,
            "target": 34963
        },
        {
            "buffer": 0,
            "byteOffset": 0,
            "byteLength": 2352,
            "byteStride": 12,
            "target": 34962
        },
        {
            "buffer": 0,
            "byteOffset": 2352,
            "byteLength": 144,
            "byteStride": 8,
            "target": 34962
        }
    ],
    "buffers": [
        {
            "byteLength": 2856,
            "uri": "data:application/octet-stream;base64,"
        }
    ]
}
