{
    "asset": {
        "generator": "COLLADA2GLTF",
        "version": "2.0"
    },
    "scenes": [
        {
            "nodes": [
                0
            ]
        }
    ],
    "scene": 0,
    "nodes": [
        {
            "children": [
                1
            ],
            "matrix": [
                1.0,
                0.0,
                0.0,
                0.0,
                0.0,
                0.0,
                -1.0,
                0.0,
                0.0,
                1.0,
                0.0,
                0.0,
                0.0,
                0.0,
                0.0,
                1.0
            ],
            "name": "Z_UP"
        },
        {
            "mesh": 0
        }
    ],
    "meshes": [
        {
            "primitives": [
                {
                    "attributes": {
                        "NORMAL": 1,
                        "POSITION": 2,
                        "TEXCOORD_0": 3
                    },
                    "indices": 0,
                    "mode": 4,
                    "material": 0
                },
                {
                    "attributes": {
                        "NORMAL": 5,
                        "POSITION": 6
                    },
                    "indices": 4,
                    "mode": 4,
                    "material": 1
                }
            ],
            "name": "geometry0"
        }
    ],
    "accessors": [
        {
            "bufferView": 0,
            "byteOffset": 0,
            "componentType": 5123,
            "count": 54,
            "max": [
                19
            ],
            "min": [
                0
            ],
            "type": "SCALAR"
        },
        {
            "bufferView": 1,
            "byteOffset": 0,
            "componentType": 5126,
            "count": 20,
            "max": [
                -0.008785899728536606,
                0.0778501033782959,
                0.9969471096992492
            ],
            "min": [
                -0.008911999873816967,
                0.07756990194320679,
                0.9969261288642884
            ],
            "type": "VEC3"
        },
        {
            "bufferView": 1,
            "byteOffset": 240,
            "componentType": 5126,
            "count": 20,
            "max": [
                34.16999816894531,
                14.270000457763672,
                16.17000007629395
            ],
            "min": [
                -18.989999771118165,
                -9.90999984741211,
                14.347999572753908
            ],
            "type": "VEC3"
        },
        {
            "bufferView": 2,
            "byteOffset": 0,
            "componentType": 5126,
            "count": 20,
            "max": [
                0.920634925365448,
                0.8529411554336548
            ],
            "min": [
                0.07619047909975052,
                0.14117646217346192
            ],
            "type": "VEC2"
        },
        {
            "bufferView": 0,
            "byteOffset": 108,
            "componentType": 5123,
            "count": 174,
            "max": [
                99
            ],
            "min": [
                0
            ],
            "type": "SCALAR"
        },
        {
            "bufferView": 1,
            "byteOffset": 480,
            "componentType": 5126,
            "count": 100,
            "max": [
                0.9979628920555116,
                0.9979581832885742,
                0.0
            ],
            "min": [
                -0.9978867173194884,
                -0.9977030158042908,
                -1.0
            ],
            "type": "VEC3"
        },
        {
            "bufferView": 1,
            "byteOffset": 1680,
            "componentType": 5126,
            "count": 100,
            "max": [
                34.16999816894531,
                14.270000457763672,
                16.17000007629395
            ],
            "min": [
                -18.989999771118165,
                -9.90999984741211,
                0.0
            ],
            "type": "VEC3"
        }
    ],
    "materials": [
        {
            "pbrMetallicRoughness": {
                "baseColorTexture": {
                    "index": 0
                },
                "metallicFactor": 0.0
            },
            "emissiveFactor": [
                0.0,
                0.0,
                0.0
            ],
            "name": "_DEBW_0010007Tx73_eff"
        },
        {
            "pbrMetallicRoughness": {
                "baseColorFactor": [
                    0.800000011920929,
                    0.800000011920929,
                    0.800000011920929,
                    1.0
                ],
                "metallicFactor": 0.0
            },
            "emissiveFactor": [
                0.0,
                0.0,
                0.0
            ],
            "name": "default_ai_0.2_sh_0.2_tr_0.0_dc_r_0.8_g_0.8_b_0.8_sc_r_1.0_g_1.0_b_1.0_ec_r_0.0_g_0.0_b_0_eff"
        }
    ],
    "textures": [
        {
            "sampler": 0,
            "source": 0
        }
    ],
    "images": [
        {
            "uri": "data:image/png;base64,"
        }
    ],
    "samplers": [
        {
            "magFilter": 9729,
            "minFilter": 9986,
            "wrapS": 10497,
            "wrapT": 10497
        }
    ],
    "bufferViews": [
        {
            "buffer": 0,
            "byteOffset": 3040,
            "byteLength": 456,
            "target": 34963
        },
        {
            "buffer": 0,
            "byteOffset": 0,
            "byteLength": 2880,
            "byteStride": 12,
            "target": 34962
        },
        {
            "buffer": 0,
            "byteOffset": 2880,
            "byteLength": 160,
            "byteStride": 8,
            "target": 34962
        }
    ],
    "buffers": [
        {
            "byteLength": 3496,
            "uri": "data:application/octet-stream;base64,"
        }
    ]
}
