{
    "asset": {
        "generator": "COLLADA2GLTF",
        "version": "2.0"
    },
    "scenes": [
        {
            "nodes": [
                0
            ]
        }
    ],
    "scene": 0,
    "nodes": [
        {
            "children": [
                1
            ],
            "matrix": [
                1.0,
                0.0,
                0.0,
                0.0,
                0.0,
                0.0,
                -1.0,
                0.0,
                0.0,
                1.0,
                0.0,
                0.0,
                0.0,
                0.0,
                0.0,
                1.0
            ],
            "name": "Z_UP"
        },
        {
            "mesh": 0
        }
    ],
    "meshes": [
        {
            "primitives": [
                {
                    "attributes": {
                        "NORMAL": 1,
                        "POSITION": 2,
                        "TEXCOORD_0": 3
                    },
                    "indices": 0,
                    "mode": 4,
                    "material": 0
                },
                {
                    "attributes": {
                        "NORMAL": 5,
                        "POSITION": 6
                    },
                    "indices": 4,
                    "mode": 4,
                    "material": 1
                },
                {
                    "attributes": {
                        "NORMAL": 8,
                        "POSITION": 9
                    },
                    "indices": 7,
                    "mode": 4,
                    "material": 2
                }
            ],
            "name": "geometry0"
        }
    ],
    "accessors": [
        {
            "bufferView": 0,
            "byteOffset": 0,
            "componentType": 5123,
            "count": 21,
            "max": [
                12
            ],
            "min": [
                0
            ],
            "type": "SCALAR"
        },
        {
            "bufferView": 1,
            "byteOffset": 0,
            "componentType": 5126,
            "count": 13,
            "max": [
                0.6334185004234314,
                0.10289920121431352,
                0.9990633726119996
            ],
            "min": [
                -0.994691789150238,
                -0.06002629920840264,
                0.0
            ],
            "type": "VEC3"
        },
        {
            "bufferView": 1,
            "byteOffset": 156,
            "componentType": 5126,
            "count": 13,
            "max": [
                8.11299991607666,
                0.7889999747276306,
                21.19199943542481
            ],
            "min": [
                -7.907000064849854,
                -11.770999908447266,
                0.0
            ],
            "type": "VEC3"
        },
        {
            "bufferView": 2,
            "byteOffset": 0,
            "componentType": 5126,
            "count": 13,
            "max": [
                0.8076923489570618,
                0.7767857313156128
            ],
            "min": [
                0.1846153885126114,
                0.2142857313156128
            ],
            "type": "VEC2"
        },
        {
            "bufferView": 0,
            "byteOffset": 42,
            "componentType": 5123,
            "count": 132,
            "max": [
                73
            ],
            "min": [
                0
            ],
            "type": "SCALAR"
        },
        {
            "bufferView": 1,
            "byteOffset": 312,
            "componentType": 5126,
            "count": 74,
            "max": [
                0.994892120361328,
                0.9948064088821412,
                0.0
            ],
            "min": [
                -0.995219588279724,
                -0.994883120059967,
                -1.0
            ],
            "type": "VEC3"
        },
        {
            "bufferView": 1,
            "byteOffset": 1200,
            "componentType": 5126,
            "count": 74,
            "max": [
                8.11299991607666,
                0.7889999747276306,
                21.19199943542481
            ],
            "min": [
                -7.907000064849854,
                -11.770999908447266,
                0.0
            ],
            "type": "VEC3"
        },
        {
            "bufferView": 0,
            "byteOffset": 306,
            "componentType": 5123,
            "count": 15,
            "max": [
                6
            ],
            "min": [
                0
            ],
            "type": "SCALAR"
        },
        {
            "bufferView": 1,
            "byteOffset": 2088,
            "componentType": 5126,
            "count": 7,
            "max": [
                -0.7137355804443359,
                0.09158659726381302,
                0.6944066882133484
            ],
            "min": [
                -0.7139999866485596,
                0.09153459966182708,
                0.6941297054290772
            ],
            "type": "VEC3"
        },
        {
            "bufferView": 1,
            "byteOffset": 2172,
            "componentType": 5126,
            "count": 7,
            "max": [
                0.0,
                0.578000009059906,
                21.19199943542481
            ],
            "min": [
                -6.776999950408936,
                -10.934000015258788,
                15.14900016784668
            ],
            "type": "VEC3"
        }
    ],
    "materials": [
        {
            "pbrMetallicRoughness": {
                "baseColorTexture": {
                    "index": 0
                },
                "metallicFactor": 0.0
            },
            "emissiveFactor": [
                0.0,
                0.0,
                0.0
            ],
            "name": "_DEBW_0010007Txgc_eff"
        },
        {
            "pbrMetallicRoughness": {
                "baseColorFactor": [
                    0.800000011920929,
                    0.800000011920929,
                    0.800000011920929,
                    1.0
                ],
                "metallicFactor": 0.0
            },
            "emissiveFactor": [
                0.0,
                0.0,
                0.0
            ],
            "name": "default_ai_0.2_sh_0.2_tr_0.0_dc_r_0.8_g_0.8_b_0.8_sc_r_1.0_g_1.0_b_1.0_ec_r_0.0_g_0.0_b_0_eff"
        },
        {
            "pbrMetallicRoughness": {
                "baseColorFactor": [
                    1.0,
                    0.20000000298023225,
                    0.20000000298023225,
                    1.0
                ],
                "metallicFactor": 0.0
            },
            "emissiveFactor": [
                0.0,
                0.0,
                0.0
            ],
            "name": "default_ai_0.2_sh_0.2_tr_0.0_dc_r_1.0_g_0.2_b_0.2_sc_r_1.0_g_1.0_b_1.0_ec_r_0.0_g_0.0_b_0_eff"
        }
    ],
    "textures": [
        {
            "sampler": 0,
            "source": 0
        }
    ],
    "images": [
        {
            "uri": "data:image/png;base64,"
        }
    ],
    "samplers": [
        {
            "magFilter": 9729,
            "minFilter": 9986,
            "wrapS": 10497,
            "wrapT": 10497
        }
    ],
    "bufferViews": [
        {
            "buffer": 0,
            "byteOffset": 2360,
            "byteLength": 336,
            "target": 34963
        },
        {
            "buffer": 0,
            "byteOffset": 0,
            "byteLength": 2256,
            "byteStride": 12,
            "target": 34962
        },
        {
            "buffer": 0,
            "byteOffset": 2256,
            "byteLength": 104,
            "byteStride": 8,
            "target": 34962
        }
    ],
    "buffers": [
        {
            "byteLength": 2696,
            "uri": "data:application/octet-stream;base64,"
        }
    ]
}
