{
    "asset": {
        "generator": "COLLADA2GLTF",
        "version": "2.0"
    },
    "scenes": [
        {
            "nodes": [
                0
            ]
        }
    ],
    "scene": 0,
    "nodes": [
        {
            "children": [
                1
            ],
            "matrix": [
                1.0,
                0.0,
                0.0,
                0.0,
                0.0,
                0.0,
                -1.0,
                0.0,
                0.0,
                1.0,
                0.0,
                0.0,
                0.0,
                0.0,
                0.0,
                1.0
            ],
            "name": "Z_UP"
        },
        {
            "mesh": 0
        }
    ],
    "meshes": [
        {
            "primitives": [
                {
                    "attributes": {
                        "NORMAL": 1,
                        "POSITION": 2,
                        "TEXCOORD_0": 3
                    },
                    "indices": 0,
                    "mode": 4,
                    "material": 0
                },
                {
                    "attributes": {
                        "NORMAL": 5,
                        "POSITION": 6
                    },
                    "indices": 4,
                    "mode": 4,
                    "material": 1
                }
            ],
            "name": "geometry0"
        }
    ],
    "accessors": [
        {
            "bufferView": 0,
            "byteOffset": 0,
            "componentType": 5123,
            "count": 33,
            "max": [
                18
            ],
            "min": [
                0
            ],
            "type": "SCALAR"
        },
        {
            "bufferView": 1,
            "byteOffset": 0,
            "componentType": 5126,
            "count": 19,
            "max": [
                0.16339820623397828,
                0.09187159687280656,
                0.98353111743927
            ],
            "min": [
                -0.4423022866249085,
                -0.28976988792419436,
                0.8494384288787842
            ],
            "type": "VEC3"
        },
        {
            "bufferView": 1,
            "byteOffset": 228,
            "componentType": 5126,
            "count": 19,
            "max": [
                0.09000000357627869,
                3.0899999141693117,
                10.326000213623049
            ],
            "min": [
                -14.180000305175782,
                -8.859999656677246,
                5.556000232696533
            ],
            "type": "VEC3"
        },
        {
            "bufferView": 2,
            "byteOffset": 0,
            "componentType": 5126,
            "count": 19,
            "max": [
                0.7933884263038635,
                0.7706421613693237
            ],
            "min": [
                0.19834710657596589,
                0.22018349170684818
            ],
            "type": "VEC2"
        },
        {
            "bufferView": 0,
            "byteOffset": 66,
            "componentType": 5123,
            "count": 111,
            "max": [
                64
            ],
            "min": [
                0
            ],
            "type": "SCALAR"
        },
        {
            "bufferView": 1,
            "byteOffset": 456,
            "componentType": 5126,
            "count": 65,
            "max": [
                0.8221923112869263,
                0.9881876707077026,
                0.0
            ],
            "min": [
                -0.984271228313446,
                -0.8269711136817932,
                -1.0
            ],
            "type": "VEC3"
        },
        {
            "bufferView": 1,
            "byteOffset": 1236,
            "componentType": 5126,
            "count": 65,
            "max": [
                0.09000000357627869,
                3.0899999141693117,
                10.326000213623049
            ],
            "min": [
                -14.180000305175782,
                -8.859999656677246,
                0.0
            ],
            "type": "VEC3"
        }
    ],
    "materials": [
        {
            "pbrMetallicRoughness": {
                "baseColorTexture": {
                    "index": 0
                },
                "metallicFactor": 0.0
            },
            "emissiveFactor": [
                0.0,
                0.0,
                0.0
            ],
            "name": "_DEBW_0010007TvlY_eff"
        },
        {
            "pbrMetallicRoughness": {
                "baseColorFactor": [
                    0.800000011920929,
                    0.800000011920929,
                    0.800000011920929,
                    1.0
                ],
                "metallicFactor": 0.0
            },
            "emissiveFactor": [
                0.0,
                0.0,
                0.0
            ],
            "name": "default_ai_0.2_sh_0.2_tr_0.0_dc_r_0.8_g_0.8_b_0.8_sc_r_1.0_g_1.0_b_1.0_ec_r_0.0_g_0.0_b_0_eff"
        }
    ],
    "textures": [
        {
            "sampler": 0,
            "source": 0
        }
    ],
    "images": [
        {
            "uri": "data:image/png;base64,"
        }
    ],
    "samplers": [
        {
            "magFilter": 9729,
            "minFilter": 9986,
            "wrapS": 10497,
            "wrapT": 10497
        }
    ],
    "bufferViews": [
        {
            "buffer": 0,
            "byteOffset": 2168,
            "byteLength": 288,
            "target": 34963
        },
        {
            "buffer": 0,
            "byteOffset": 0,
            "byteLength": 2016,
            "byteStride": 12,
            "target": 34962
        },
        {
            "buffer": 0,
            "byteOffset": 2016,
            "byteLength": 152,
            "byteStride": 8,
            "target": 34962
        }
    ],
    "buffers": [
        {
            "byteLength": 2456,
            "uri": "data:application/octet-stream;base64,"
        }
    ]
}
