{
    "asset": {
        "generator": "COLLADA2GLTF",
        "version": "2.0"
    },
    "scenes": [
        {
            "nodes": [
                0
            ]
        }
    ],
    "scene": 0,
    "nodes": [
        {
            "children": [
                1
            ],
            "matrix": [
                1.0,
                0.0,
                0.0,
                0.0,
                0.0,
                0.0,
                -1.0,
                0.0,
                0.0,
                1.0,
                0.0,
                0.0,
                0.0,
                0.0,
                0.0,
                1.0
            ],
            "name": "Z_UP"
        },
        {
            "mesh": 0
        }
    ],
    "meshes": [
        {
            "primitives": [
                {
                    "attributes": {
                        "NORMAL": 1,
                        "POSITION": 2,
                        "TEXCOORD_0": 3
                    },
                    "indices": 0,
                    "mode": 4,
                    "material": 0
                },
                {
                    "attributes": {
                        "NORMAL": 5,
                        "POSITION": 6
                    },
                    "indices": 4,
                    "mode": 4,
                    "material": 1
                }
            ],
            "name": "geometry0"
        }
    ],
    "accessors": [
        {
            "bufferView": 0,
            "byteOffset": 0,
            "componentType": 5123,
            "count": 48,
            "max": [
                21
            ],
            "min": [
                0
            ],
            "type": "SCALAR"
        },
        {
            "bufferView": 1,
            "byteOffset": 0,
            "componentType": 5126,
            "count": 22,
            "max": [
                0.7041866779327393,
                0.03152899816632271,
                0.7273985147476196
            ],
            "min": [
                -0.686295211315155,
                0.01731479912996292,
                0.709382176399231
            ],
            "type": "VEC3"
        },
        {
            "bufferView": 1,
            "byteOffset": 264,
            "componentType": 5126,
            "count": 22,
            "max": [
                1.200000047683716,
                8.710000038146973,
                22.11599922180176
            ],
            "min": [
                -14.779999732971192,
                -0.4600000083446503,
                13.98099994659424
            ],
            "type": "VEC3"
        },
        {
            "bufferView": 2,
            "byteOffset": 0,
            "componentType": 5126,
            "count": 22,
            "max": [
                0.8062015175819397,
                0.736842155456543
            ],
            "min": [
                0.1860465109348297,
                0.2526315450668335
            ],
            "type": "VEC2"
        },
        {
            "bufferView": 0,
            "byteOffset": 96,
            "componentType": 5123,
            "count": 156,
            "max": [
                89
            ],
            "min": [
                0
            ],
            "type": "SCALAR"
        },
        {
            "bufferView": 1,
            "byteOffset": 528,
            "componentType": 5126,
            "count": 90,
            "max": [
                1.0,
                1.0,
                0.0
            ],
            "min": [
                -1.0,
                -0.999974489212036,
                -1.0
            ],
            "type": "VEC3"
        },
        {
            "bufferView": 1,
            "byteOffset": 1608,
            "componentType": 5126,
            "count": 90,
            "max": [
                1.200000047683716,
                8.710000038146973,
                22.11599922180176
            ],
            "min": [
                -14.779999732971192,
                -0.4600000083446503,
                0.0
            ],
            "type": "VEC3"
        }
    ],
    "materials": [
        {
            "pbrMetallicRoughness": {
                "baseColorTexture": {
                    "index": 0
                },
                "metallicFactor": 0.0
            },
            "emissiveFactor": [
                0.0,
                0.0,
                0.0
            ],
            "name": "_DEBW_0010007Tx7V_eff"
        },
        {
            "pbrMetallicRoughness": {
                "baseColorFactor": [
                    0.800000011920929,
                    0.800000011920929,
                    0.800000011920929,
                    1.0
                ],
                "metallicFactor": 0.0
            },
            "emissiveFactor": [
                0.0,
                0.0,
                0.0
            ],
            "name": "default_ai_0.2_sh_0.2_tr_0.0_dc_r_0.8_g_0.8_b_0.8_sc_r_1.0_g_1.0_b_1.0_ec_r_0.0_g_0.0_b_0_eff"
        }
    ],
    "textures": [
        {
            "sampler": 0,
            "source": 0
        }
    ],
    "images": [
        {
            "uri": "data:image/png;base64,"
        }
    ],
    "samplers": [
        {
            "magFilter": 9729,
            "minFilter": 9986,
            "wrapS": 10497,
            "wrapT": 10497
        }
    ],
    "bufferViews": [
        {
            "buffer": 0,
            "byteOffset": 2864,
            "byteLength": 408,
            "target": 34963
        },
        {
            "buffer": 0,
            "byteOffset": 0,
            "byteLength": 2688,
            "byteStride": 12,
            "target": 34962
        },
        {
            "buffer": 0,
            "byteOffset": 2688,
            "byteLength": 176,
            "byteStride": 8,
            "target": 34962
        }
    ],
    "buffers": [
        {
            "byteLength": 3272,
            "uri": "data:application/octet-stream;base64,"
        }
    ]
}
