{
    "asset": {
        "generator": "COLLADA2GLTF",
        "version": "2.0"
    },
    "scenes": [
        {
            "nodes": [
                0
            ]
        }
    ],
    "scene": 0,
    "nodes": [
        {
            "children": [
                1
            ],
            "matrix": [
                1.0,
                0.0,
                0.0,
                0.0,
                0.0,
                0.0,
                -1.0,
                0.0,
                0.0,
                1.0,
                0.0,
                0.0,
                0.0,
                0.0,
                0.0,
                1.0
            ],
            "name": "Z_UP"
        },
        {
            "mesh": 0
        }
    ],
    "meshes": [
        {
            "primitives": [
                {
                    "attributes": {
                        "NORMAL": 1,
                        "POSITION": 2,
                        "TEXCOORD_0": 3
                    },
                    "indices": 0,
                    "mode": 4,
                    "material": 0
                },
                {
                    "attributes": {
                        "NORMAL": 5,
                        "POSITION": 6
                    },
                    "indices": 4,
                    "mode": 4,
                    "material": 1
                },
                {
                    "attributes": {
                        "NORMAL": 8,
                        "POSITION": 9
                    },
                    "indices": 7,
                    "mode": 4,
                    "material": 2
                }
            ],
            "name": "geometry0"
        }
    ],
    "accessors": [
        {
            "bufferView": 0,
            "byteOffset": 0,
            "componentType": 5123,
            "count": 39,
            "max": [
                22
            ],
            "min": [
                0
            ],
            "type": "SCALAR"
        },
        {
            "bufferView": 1,
            "byteOffset": 0,
            "componentType": 5126,
            "count": 23,
            "max": [
                0.7739862203598023,
                0.9784982204437256,
                0.6329594850540161
            ],
            "min": [
                -0.978644073009491,
                -0.8017609119415283,
                0.0
            ],
            "type": "VEC3"
        },
        {
            "bufferView": 1,
            "byteOffset": 276,
            "componentType": 5126,
            "count": 23,
            "max": [
                20.61400032043457,
                20.054000854492189,
                10.109000205993653
            ],
            "min": [
                -4.656000137329102,
                -8.005999565124512,
                0.0
            ],
            "type": "VEC3"
        },
        {
            "bufferView": 2,
            "byteOffset": 0,
            "componentType": 5126,
            "count": 23,
            "max": [
                0.8579545617103577,
                0.8684210777282715
            ],
            "min": [
                0.13636364042758945,
                0.12631577253341676
            ],
            "type": "VEC2"
        },
        {
            "bufferView": 0,
            "byteOffset": 78,
            "componentType": 5123,
            "count": 165,
            "max": [
                91
            ],
            "min": [
                0
            ],
            "type": "SCALAR"
        },
        {
            "bufferView": 1,
            "byteOffset": 552,
            "componentType": 5126,
            "count": 92,
            "max": [
                0.9783890247344972,
                0.9781392812728882,
                0.005692000035196543
            ],
            "min": [
                -0.5462452173233032,
                -0.9789217710494996,
                -1.0
            ],
            "type": "VEC3"
        },
        {
            "bufferView": 1,
            "byteOffset": 1656,
            "componentType": 5126,
            "count": 92,
            "max": [
                20.61400032043457,
                20.054000854492189,
                10.109000205993653
            ],
            "min": [
                -4.656000137329102,
                -8.005999565124512,
                0.0
            ],
            "type": "VEC3"
        },
        {
            "bufferView": 0,
            "byteOffset": 408,
            "componentType": 5123,
            "count": 18,
            "max": [
                9
            ],
            "min": [
                0
            ],
            "type": "SCALAR"
        },
        {
            "bufferView": 1,
            "byteOffset": 2760,
            "componentType": 5126,
            "count": 10,
            "max": [
                0.803747296333313,
                0.17085470259189609,
                0.5772985816001892
            ],
            "min": [
                -0.8009222745895386,
                -0.1700780987739563,
                0.5701475739479065
            ],
            "type": "VEC3"
        },
        {
            "bufferView": 1,
            "byteOffset": 2880,
            "componentType": 5126,
            "count": 10,
            "max": [
                7.763999938964844,
                20.054000854492189,
                10.07800006866455
            ],
            "min": [
                -4.656000137329102,
                -3.036000013351441,
                4.410999774932861
            ],
            "type": "VEC3"
        }
    ],
    "materials": [
        {
            "pbrMetallicRoughness": {
                "baseColorTexture": {
                    "index": 0
                },
                "metallicFactor": 0.0
            },
            "emissiveFactor": [
                0.0,
                0.0,
                0.0
            ],
            "name": "_DEBW_0010007TxhW_eff"
        },
        {
            "pbrMetallicRoughness": {
                "baseColorFactor": [
                    0.800000011920929,
                    0.800000011920929,
                    0.800000011920929,
                    1.0
                ],
                "metallicFactor": 0.0
            },
            "emissiveFactor": [
                0.0,
                0.0,
                0.0
            ],
            "name": "default_ai_0.2_sh_0.2_tr_0.0_dc_r_0.8_g_0.8_b_0.8_sc_r_1.0_g_1.0_b_1.0_ec_r_0.0_g_0.0_b_0_eff"
        },
        {
            "pbrMetallicRoughness": {
                "baseColorFactor": [
                    1.0,
                    0.20000000298023225,
                    0.20000000298023225,
                    1.0
                ],
                "metallicFactor": 0.0
            },
            "emissiveFactor": [
                0.0,
                0.0,
                0.0
            ],
            "name": "default_ai_0.2_sh_0.2_tr_0.0_dc_r_1.0_g_0.2_b_0.2_sc_r_1.0_g_1.0_b_1.0_ec_r_0.0_g_0.0_b_0_eff"
        }
    ],
    "textures": [
        {
            "sampler": 0,
            "source": 0
        }
    ],
    "images": [
        {
            "uri": "data:image/png;base64,"
        }
    ],
    "samplers": [
        {
            "magFilter": 9729,
            "minFilter": 9986,
            "wrapS": 10497,
            "wrapT": 10497
        }
    ],
    "bufferViews": [
        {
            "buffer": 0,
            "byteOffset": 3184,
            "byteLength": 444,
            "target": 34963
        },
        {
            "buffer": 0,
            "byteOffset": 0,
            "byteLength": 3000,
            "byteStride": 12,
            "target": 34962
        },
        {
            "buffer": 0,
            "byteOffset": 3000,
            "byteLength": 184,
            "byteStride": 8,
            "target": 34962
        }
    ],
    "buffers": [
        {
            "byteLength": 3628,
            "uri": "data:application/octet-stream;base64,"
        }
    ]
}
