{
    "asset": {
        "generator": "COLLADA2GLTF",
        "version": "2.0"
    },
    "scenes": [
        {
            "nodes": [
                0
            ]
        }
    ],
    "scene": 0,
    "nodes": [
        {
            "children": [
                1
            ],
            "matrix": [
                1.0,
                0.0,
                0.0,
                0.0,
                0.0,
                0.0,
                -1.0,
                0.0,
                0.0,
                1.0,
                0.0,
                0.0,
                0.0,
                0.0,
                0.0,
                1.0
            ],
            "name": "Z_UP"
        },
        {
            "mesh": 0
        }
    ],
    "meshes": [
        {
            "primitives": [
                {
                    "attributes": {
                        "NORMAL": 1,
                        "POSITION": 2,
                        "TEXCOORD_0": 3
                    },
                    "indices": 0,
                    "mode": 4,
                    "material": 0
                },
                {
                    "attributes": {
                        "NORMAL": 5,
                        "POSITION": 6
                    },
                    "indices": 4,
                    "mode": 4,
                    "material": 1
                },
                {
                    "attributes": {
                        "NORMAL": 8,
                        "POSITION": 9
                    },
                    "indices": 7,
                    "mode": 4,
                    "material": 2
                }
            ],
            "name": "geometry0"
        }
    ],
    "accessors": [
        {
            "bufferView": 0,
            "byteOffset": 0,
            "componentType": 5123,
            "count": 42,
            "max": [
                21
            ],
            "min": [
                0
            ],
            "type": "SCALAR"
        },
        {
            "bufferView": 1,
            "byteOffset": 0,
            "componentType": 5126,
            "count": 22,
            "max": [
                0.5400698184967041,
                0.7509573101997376,
                0.8404597043991089
            ],
            "min": [
                -0.5742005109786987,
                -0.9292178750038148,
                0.0
            ],
            "type": "VEC3"
        },
        {
            "bufferView": 1,
            "byteOffset": 264,
            "componentType": 5126,
            "count": 22,
            "max": [
                13.779999732971192,
                4.070000171661377,
                19.507999420166017
            ],
            "min": [
                -2.3399999141693117,
                -5.940000057220459,
                0.0
            ],
            "type": "VEC3"
        },
        {
            "bufferView": 2,
            "byteOffset": 0,
            "componentType": 5126,
            "count": 22,
            "max": [
                0.6467065811157227,
                0.782608687877655
            ],
            "min": [
                0.14371256530284882,
                0.208695650100708
            ],
            "type": "VEC2"
        },
        {
            "bufferView": 0,
            "byteOffset": 84,
            "componentType": 5123,
            "count": 306,
            "max": [
                171
            ],
            "min": [
                0
            ],
            "type": "SCALAR"
        },
        {
            "bufferView": 1,
            "byteOffset": 528,
            "componentType": 5126,
            "count": 172,
            "max": [
                0.9952116012573242,
                0.9950370192527772,
                0.0005597000126726925
            ],
            "min": [
                -0.9961072206497192,
                -0.9953870177268982,
                -1.0
            ],
            "type": "VEC3"
        },
        {
            "bufferView": 1,
            "byteOffset": 2592,
            "componentType": 5126,
            "count": 172,
            "max": [
                21.15999984741211,
                4.070000171661377,
                19.507999420166017
            ],
            "min": [
                -2.3399999141693117,
                -9.130000114440918,
                0.0
            ],
            "type": "VEC3"
        },
        {
            "bufferView": 0,
            "byteOffset": 696,
            "componentType": 5123,
            "count": 54,
            "max": [
                21
            ],
            "min": [
                0
            ],
            "type": "SCALAR"
        },
        {
            "bufferView": 1,
            "byteOffset": 4656,
            "componentType": 5126,
            "count": 22,
            "max": [
                0.07710179686546326,
                0.7299268841743469,
                0.753572404384613
            ],
            "min": [
                -0.04944109916687012,
                -0.6886789202690125,
                0.6791626811027527
            ],
            "type": "VEC3"
        },
        {
            "bufferView": 1,
            "byteOffset": 4920,
            "componentType": 5126,
            "count": 22,
            "max": [
                21.15999984741211,
                0.3799999952316284,
                19.5049991607666
            ],
            "min": [
                -2.3399999141693117,
                -9.130000114440918,
                14.052000045776368
            ],
            "type": "VEC3"
        }
    ],
    "materials": [
        {
            "pbrMetallicRoughness": {
                "baseColorTexture": {
                    "index": 0
                },
                "metallicFactor": 0.0
            },
            "emissiveFactor": [
                0.0,
                0.0,
                0.0
            ],
            "name": "_DEBW_0010007Txh2_eff"
        },
        {
            "pbrMetallicRoughness": {
                "baseColorFactor": [
                    0.800000011920929,
                    0.800000011920929,
                    0.800000011920929,
                    1.0
                ],
                "metallicFactor": 0.0
            },
            "emissiveFactor": [
                0.0,
                0.0,
                0.0
            ],
            "name": "default_ai_0.2_sh_0.2_tr_0.0_dc_r_0.8_g_0.8_b_0.8_sc_r_1.0_g_1.0_b_1.0_ec_r_0.0_g_0.0_b_0_eff"
        },
        {
            "pbrMetallicRoughness": {
                "baseColorFactor": [
                    1.0,
                    0.20000000298023225,
                    0.20000000298023225,
                    1.0
                ],
                "metallicFactor": 0.0
            },
            "emissiveFactor": [
                0.0,
                0.0,
                0.0
            ],
            "name": "default_ai_0.2_sh_0.2_tr_0.0_dc_r_1.0_g_0.2_b_0.2_sc_r_1.0_g_1.0_b_1.0_ec_r_0.0_g_0.0_b_0_eff"
        }
    ],
    "textures": [
        {
            "sampler": 0,
            "source": 0
        }
    ],
    "images": [
        {
            "uri": "data:image/png;base64,"
        }
    ],
    "samplers": [
        {
            "magFilter": 9729,
            "minFilter": 9986,
            "wrapS": 10497,
            "wrapT": 10497
        }
    ],
    "bufferViews": [
        {
            "buffer": 0,
            "byteOffset": 5360,
            "byteLength": 804,
            "target": 34963
        },
        {
            "buffer": 0,
            "byteOffset": 0,
            "byteLength": 5184,
            "byteStride": 12,
            "target": 34962
        },
        {
            "buffer": 0,
            "byteOffset": 5184,
            "byteLength": 176,
            "byteStride": 8,
            "target": 34962
        }
    ],
    "buffers": [
        {
            "byteLength": 6164,
            "uri": "data:application/octet-stream;base64,"
        }
    ]
}
